<svg width="376" height="267" viewBox="0 0 376 267" fill="none" xmlns="http://www.w3.org/2000/svg">
<g clip-path="url(#clip0_343_197)">
<path opacity="0.1" d="M297.387 229.115C339.999 229.115 374.543 222.387 374.543 214.087C374.543 205.788 339.999 199.059 297.387 199.059C254.775 199.059 220.231 205.788 220.231 214.087C220.231 222.387 254.775 229.115 297.387 229.115Z" fill="#DA2930"/>
<g opacity="0.5">
<path d="M231.3 37.8847C230.26 38.181 228.986 38.9529 228.358 41.0637C227.128 45.2012 229.986 48.0143 229.044 52.3274C228.783 53.4715 228.285 54.5481 227.584 55.4881C226.434 57.0502 225.186 57.7891 223.974 58.883C222.436 60.2804 221.335 62.0932 220.801 64.1033C220.217 66.3219 220.168 68.648 220.659 70.8893C221.09 72.7623 221.823 74.1268 222.466 75.645C223.265 77.5814 223.889 79.5856 224.331 81.6335C224.574 82.6308 224.711 83.651 224.74 84.6772C224.722 86.0405 224.6 87.4004 224.375 88.7451L222.627 100.971C222.361 102.569 222.201 104.184 222.148 105.803C222.171 107.427 222.358 109.043 222.707 110.629C223.32 113.863 223.981 117.214 225.386 118.926C226.792 120.638 229.186 120.023 230.658 116.559C232.056 113.244 232.089 108.822 233.322 105.28C235.268 99.7015 239.134 98.9516 241.28 93.6289C243.339 88.5074 242.708 82.2591 243.752 76.4352C244.482 72.2611 246.092 68.4566 247.037 64.3337C248.395 58.3964 248.26 52.2323 247.176 47.6668C246.351 43.9156 244.567 40.4437 241.999 37.592C241.091 36.586 240.116 35.6897 238.973 35.5983C237.758 35.5032 236.695 37.036 235.494 37.4969C234.107 38.042 232.713 37.4823 231.3 37.8847Z" fill="#DA2930"/>
<path d="M237.882 35.9092C237.882 35.9092 235.823 88.7122 227.164 119.847" stroke="#535461" stroke-width="2" stroke-miterlimit="10"/>
<path d="M228.307 41.3125C228.307 41.3125 237.561 49.7557 235.805 65.8226" stroke="#535461" stroke-width="2" stroke-miterlimit="10"/>
<path d="M220.542 65.3397C220.542 65.3397 235.731 68.4017 234.604 77.507" stroke="#535461" stroke-width="2" stroke-miterlimit="10"/>
<path d="M247.201 47.5571C247.201 47.5571 241.054 52.9493 235.578 68.2224" stroke="#535461" stroke-width="2" stroke-miterlimit="10"/>
<path d="M241.196 93.7167C241.196 93.7167 237.002 97.0091 233.636 85.482" stroke="#535461" stroke-width="2" stroke-miterlimit="10"/>
<path d="M223.098 100.451C223.098 100.451 231.651 99.3321 232.439 93.9654" stroke="#535461" stroke-width="2" stroke-miterlimit="10"/>
</g>
<path d="M251.976 2.46931C249.859 2.78392 247.311 3.76799 246.263 6.80067C244.208 12.749 250.454 17.2522 249.015 23.4676C248.586 25.178 247.682 26.7317 246.409 27.9489C244.219 30.1109 241.714 31.0548 239.342 32.5217C236.969 33.9887 234.505 36.297 233.391 39.8382C232.322 43.244 232.785 47.0047 233.899 49.8142C235.012 52.6237 236.695 54.7199 238.199 57.0319C240.027 59.8777 241.555 62.9058 242.758 66.0677C243.366 67.5089 243.773 69.0265 243.97 70.5783C244.164 72.4806 243.919 74.5256 243.675 76.5266L241.503 94.3569C241.214 96.7274 240.922 99.1345 241.087 101.417C241.273 104.048 242.05 106.345 242.817 108.587C244.467 113.424 246.234 118.465 249.347 121.128C252.461 123.791 257.346 123.22 259.978 118.267C262.482 113.552 262.022 107.044 264.157 101.977C267.523 93.9911 275.437 93.3436 279.245 85.7637C282.895 78.4911 280.855 69.1882 282.322 60.7377C283.373 54.6833 286.221 49.2691 287.681 43.3099C289.787 34.724 288.776 25.6333 285.994 18.7997C283.213 11.9661 278.814 7.09332 274.094 3.35095C272.093 1.75962 269.973 0.32193 267.596 0.0585367C265.07 -0.223147 263.051 1.90594 260.624 2.44371C257.798 3.03268 254.849 2.0413 251.976 2.46931Z" fill="#DA2930"/>
<path d="M265.366 0.34021C265.366 0.34021 267.359 77.8546 253.115 122.679" stroke="#535461" stroke-width="2" stroke-miterlimit="10"/>
<path d="M246.183 7.1738C246.183 7.1738 266.333 20.7093 264.606 44.1805" stroke="#535461" stroke-width="2" stroke-miterlimit="10"/>
<path d="M232.957 41.6234C232.957 41.6234 264.76 47.9375 263.504 61.2096" stroke="#535461" stroke-width="2" stroke-miterlimit="10"/>
<path d="M286.031 18.6021C286.031 18.6021 273.944 25.8125 264.424 47.6522" stroke="#535461" stroke-width="2" stroke-miterlimit="10"/>
<path d="M279.055 85.8661C279.055 85.8661 270.769 90.256 262.435 72.8391" stroke="#535461" stroke-width="2" stroke-miterlimit="10"/>
<path d="M242.394 93.6252C242.394 93.6252 259.963 92.9924 260.963 85.182" stroke="#535461" stroke-width="2" stroke-miterlimit="10"/>
<path d="M24.5495 211.662C24.5495 211.662 27.6086 215.686 23.1368 221.722C18.665 227.758 14.9707 232.887 16.4711 236.662C16.4711 236.662 23.2171 225.421 28.7074 225.263C34.1976 225.106 30.591 218.422 24.5495 211.662Z" fill="#DA2930"/>
<path opacity="0.1" d="M24.5492 211.662C24.8221 212.048 25.0385 212.472 25.1916 212.92C30.5505 219.227 33.4015 225.113 28.2544 225.263C23.4577 225.402 17.7046 233.995 16.3247 236.168C16.3702 236.336 16.4251 236.501 16.489 236.662C16.489 236.662 23.235 225.421 28.7253 225.263C34.2156 225.106 30.5907 218.422 24.5492 211.662Z" fill="black"/>
<path d="M30.2369 216.772C30.2369 218.185 30.08 219.333 29.8719 219.333C29.6638 219.333 29.5068 218.188 29.5068 216.772C29.5068 215.357 29.704 216.041 29.8974 216.041C30.0909 216.041 30.2369 215.36 30.2369 216.772Z" fill="#FFD037"/>
<path d="M32.1897 218.455C30.9522 219.132 29.8753 219.553 29.7841 219.366C29.6928 219.18 30.6164 218.506 31.8539 217.833C33.0914 217.16 32.6022 217.65 32.6971 217.833C32.792 218.016 33.4235 217.778 32.1897 218.455Z" fill="#FFD037"/>
<path d="M8.39953 211.662C8.39953 211.662 5.34045 215.686 9.81225 221.722C14.2841 227.758 17.971 232.883 16.478 236.659C16.478 236.659 9.73194 225.417 4.24166 225.26C-1.24861 225.102 2.35073 218.422 8.39953 211.662Z" fill="#DA2930"/>
<path opacity="0.1" d="M8.39953 211.662C8.13295 212.05 7.92277 212.473 7.7753 212.92C2.41644 219.227 -0.434561 225.113 4.71257 225.263C9.50926 225.402 15.2624 233.995 16.6422 236.168C16.5967 236.336 16.5419 236.501 16.478 236.662C16.478 236.662 9.73194 225.421 4.24166 225.263C-1.24861 225.106 2.35073 218.422 8.39953 211.662Z" fill="black"/>
<path d="M2.70508 216.772C2.70508 218.185 2.86205 219.333 3.07012 219.333C3.2782 219.333 3.43517 218.188 3.43517 216.772C3.43517 215.357 3.23804 216.041 3.04457 216.041C2.8511 216.041 2.70508 215.36 2.70508 216.772Z" fill="#FFD037"/>
<path d="M0.752074 218.455C1.98958 219.132 3.06646 219.553 3.15772 219.366C3.24898 219.18 2.32542 218.506 1.08791 217.833C-0.149588 217.16 0.339574 217.65 0.244662 217.833C0.14975 218.016 -0.481778 217.778 0.752074 218.455Z" fill="#FFD037"/>
<path d="M3.67969 236.135C3.67969 236.135 12.2327 235.872 14.8099 234.032C17.3871 232.192 27.9515 230.008 28.605 232.935C29.2584 235.861 41.4582 247.608 31.8028 247.685C22.1473 247.761 9.36709 246.177 6.79352 244.608C4.21995 243.039 3.67969 236.135 3.67969 236.135Z" fill="#A8A8A8"/>
<path opacity="0.2" d="M31.9743 246.668C22.3189 246.744 9.53866 245.16 6.96509 243.591C5.0048 242.395 4.2236 238.104 3.96442 236.125H3.67969C3.67969 236.125 4.21995 243.039 6.79352 244.608C9.36709 246.177 22.1473 247.765 31.8028 247.685C34.5917 247.663 35.5518 246.668 35.5007 245.197C35.1137 246.097 34.0514 246.653 31.9743 246.668Z" fill="black"/>
<path d="M358.606 209.997C359.275 209.451 359.762 208.713 360.004 207.883C360.186 207.042 359.829 206.035 359.025 205.728C358.127 205.384 357.167 206.006 356.441 206.639C355.714 207.272 354.879 207.989 353.926 207.854C354.415 207.409 354.782 206.844 354.989 206.215C355.196 205.587 355.238 204.915 355.109 204.265C355.067 203.996 354.954 203.743 354.78 203.533C354.28 202.999 353.378 203.23 352.78 203.65C350.881 204.989 350.352 207.572 350.341 209.899C350.151 209.061 350.312 208.187 350.305 207.338C350.297 206.489 350.064 205.509 349.341 205.062C348.893 204.821 348.389 204.701 347.881 204.715C347.026 204.682 346.077 204.77 345.493 205.395C344.763 206.171 344.957 207.477 345.588 208.322C346.22 209.167 347.176 209.712 348.059 210.305C348.767 210.726 349.371 211.303 349.826 211.991C349.88 212.087 349.924 212.187 349.958 212.291H355.306C356.504 211.679 357.614 210.908 358.606 209.997Z" fill="#DA2930"/>
<path opacity="0.1" d="M53.5631 175.712C65.1788 190.514 60.6669 212.137 53.2856 229.452C50.8143 235.25 48.018 241.385 49.0621 247.6C50.3361 255.202 57.0931 260.77 64.2187 263.697C77.1778 269.067 92.6922 267.787 104.596 260.364C114.887 253.947 122.257 243.514 132.723 237.39C150.245 227.147 172.535 231.014 191.554 238.071C205.009 243.064 219.721 249.561 233.092 244.341C242.499 240.683 249.005 231.731 252.549 222.256C254.261 217.68 255.502 212.745 258.755 209.086C260.697 206.932 263.23 205.399 265.829 204.111C289.557 192.328 319.491 198.624 342.518 185.571C358.073 176.748 368.031 160.099 372.452 142.741C376.872 125.382 376.347 107.179 375.226 89.3049C374.43 76.5998 373.003 63.0387 364.903 53.231C356.335 42.8599 341.627 39.0005 328.336 40.9723C315.045 42.944 302.991 50.0044 292.405 58.2794C279.157 68.6212 266.873 81.5019 250.607 85.6942C239.532 88.5476 227.879 86.9855 216.453 86.4478C197.354 85.5442 178.252 87.5452 159.258 89.7402C141.075 91.8473 122.754 94.1667 105.44 100.093C93.1814 104.289 83.3544 111.902 71.7788 117.221C64.2333 120.689 56.0052 121.647 48.8649 126.063C40.0637 131.503 31.9999 140.966 34.2631 152.036C36.3877 162.576 47.3938 167.858 53.5631 175.712Z" fill="#DA2930"/>
<path opacity="0.1" d="M201.632 175.705C287.854 175.705 357.751 168.977 357.751 160.677C357.751 152.377 287.854 145.649 201.632 145.649C115.41 145.649 45.5137 152.377 45.5137 160.677C45.5137 168.977 115.41 175.705 201.632 175.705Z" fill="#DA2930"/>
<path opacity="0.1" d="M81.6461 262.405C124.258 262.405 158.802 255.677 158.802 247.377C158.802 239.077 124.258 232.349 81.6461 232.349C39.0341 232.349 4.49023 239.077 4.49023 247.377C4.49023 255.677 39.0341 262.405 81.6461 262.405Z" fill="#DA2930"/>
<path d="M160.518 155.991L159.295 157.772C159.295 157.772 160.627 159.554 160.755 159.777C160.883 160 164.643 159.667 164.643 159.667L164.975 158.332L164.42 156.774L160.518 155.991Z" fill="#E6E6F0"/>
<path d="M119.402 154.988L116.957 155.431L118.512 158.442L120.18 159.331L121.735 160.443L122.18 159.221L121.067 156.88L119.402 154.988Z" fill="#FDC2CC"/>
<path d="M159.408 126.034C159.408 126.034 172.411 129.15 174.853 132.618C174.853 132.618 177.076 134.513 174.853 137.963C172.63 141.413 169.52 149.212 169.52 149.212C169.52 149.212 167.297 156.785 166.409 157.341C165.522 157.897 160.408 158.343 159.963 156.243C159.963 156.243 162.85 151.678 162.85 149.56C162.85 147.442 167.629 137.422 167.629 137.422C167.629 137.422 156.739 136.196 153.293 136.975C149.847 137.755 154.852 124.808 159.408 126.034Z" fill="#565171"/>
<path opacity="0.1" d="M159.408 126.034C159.408 126.034 172.411 129.15 174.853 132.618C174.853 132.618 177.076 134.513 174.853 137.963C172.63 141.413 169.52 149.212 169.52 149.212C169.52 149.212 167.297 156.785 166.409 157.341C165.522 157.897 160.408 158.343 159.963 156.243C159.963 156.243 162.85 151.678 162.85 149.56C162.85 147.442 167.629 137.422 167.629 137.422C167.629 137.422 156.739 136.196 153.293 136.975C149.847 137.755 154.852 124.808 159.408 126.034Z" fill="black"/>
<path d="M156.739 129.041C156.714 129.688 156.645 130.416 156.546 131.199C155.834 136.869 153.516 145.301 153.516 145.301C153.516 145.301 151.183 150.313 150.515 153.543C149.847 156.774 145.292 157.568 145.292 157.568C145.292 157.568 132.844 159.031 130.288 158.46C127.733 157.889 123.717 160.132 121.732 159.795C119.746 159.459 118.508 154.784 118.508 154.784C121.955 154.804 125.366 154.083 128.511 152.669C133.621 150.332 140.959 151.444 140.959 151.444C141.506 151.284 142.015 151.015 142.454 150.651C142.894 150.287 143.254 149.838 143.514 149.329C144.291 147.657 144.291 137.524 144.069 136.855C142.609 132.465 142.729 129.648 143.149 128.005C143.289 127.288 143.605 126.617 144.069 126.052L156.739 129.041Z" fill="#565171"/>
<path opacity="0.1" d="M156.74 129.041C156.714 129.688 156.645 130.416 156.546 131.199C155.429 131.287 152.297 131.371 149.975 129.933C147.785 128.587 144.598 128.13 143.164 127.987C143.304 127.27 143.62 126.598 144.083 126.034L156.74 129.041Z" fill="black"/>
<path d="M158.276 127.647C157.758 129.11 156.962 130.826 156.962 130.826C156.962 130.826 152.852 131.382 149.961 129.6C147.07 127.819 142.404 127.596 142.404 127.596C143.16 127.131 143.671 125.719 143.989 124.482C144.166 123.783 144.305 123.075 144.405 122.361C144.405 122.361 158.072 125.145 158.642 125.591C158.853 125.766 158.627 126.652 158.276 127.647Z" fill="#E6E6F0"/>
<path d="M182.632 80.708L166.056 90.7352L164.409 91.7303V86.8319L165.552 86.2831L179.522 79.5922C179.522 79.5922 180.19 67.4542 181.968 69.3492C183.746 71.2442 182.632 80.708 182.632 80.708Z" fill="#FDC2CC"/>
<path opacity="0.1" d="M166.056 90.7352L164.409 91.7303V86.8319L165.552 86.2831C165.627 87.7762 165.796 89.2631 166.056 90.7352Z" fill="black"/>
<path d="M153.297 92.5278L165.186 85.6247C165.186 85.6247 165.409 92.3083 166.741 93.307C166.741 93.307 161.854 94.7703 159.963 97.8724L153.297 92.5278Z" fill="#B45181"/>
<path opacity="0.1" d="M153.297 92.5278L165.186 85.6247C165.186 85.6247 165.409 92.3083 166.741 93.307C166.741 93.307 161.854 94.7703 159.963 97.8724L153.297 92.5278Z" fill="black"/>
<path d="M182.526 98.4139C182.526 98.4139 176.872 100.883 173.126 101.79C172.284 102.045 171.402 102.147 170.524 102.09C167.968 101.644 171.192 98.4322 171.192 98.4322L172.535 98.2236L179.748 97.0969C179.748 97.0969 180.526 85.9612 181.858 86.8538C183.191 87.7464 182.526 98.4139 182.526 98.4139Z" fill="#FDC2CC"/>
<path d="M158.63 88.3903C158.63 88.3903 153.852 91.9534 155.629 96.4091C157.407 100.865 146.405 93.735 146.405 93.735C146.405 93.735 149.96 88.3903 150.738 84.3809C151.515 80.3714 158.63 88.3903 158.63 88.3903Z" fill="#FDC2CC"/>
<path opacity="0.1" d="M158.276 127.647C156.21 126.867 154.05 126.362 151.852 126.147C148.639 125.781 145.697 125.163 143.992 124.482C144.17 123.783 144.308 123.075 144.408 122.361C144.408 122.361 158.076 125.145 158.645 125.591C158.853 125.766 158.627 126.652 158.276 127.647Z" fill="black"/>
<path opacity="0.1" d="M173.123 101.79C172.28 102.045 171.398 102.147 170.52 102.09C167.964 101.644 171.188 98.4322 171.188 98.4322L172.531 98.2236C173.093 99.0906 173.666 100.444 173.123 101.79Z" fill="black"/>
<path d="M150.851 90.395C150.851 90.395 146.518 90.2852 144.963 92.0668C143.408 93.8484 143.74 98.6516 143.74 98.6516C143.74 98.6516 143.415 108.269 145.85 113.65C145.93 113.824 145.939 114.022 145.876 114.203C145.85 114.269 145.85 114.228 145.85 114.228C145.85 114.228 144.295 121.245 142.74 122.47C141.185 123.696 146.073 125.145 151.866 125.81C157.659 126.476 159.977 128.148 159.977 128.148C159.977 128.148 160.977 127.051 161.072 124.585C161.167 122.119 159.528 104.205 159.528 104.205C159.528 104.205 165.639 105.763 169.308 103.872C169.308 103.872 170.976 104.765 172.531 102.314C174.086 99.8625 171.436 97.192 171.436 97.192C171.436 97.192 168.99 99.643 162.211 96.4128C155.432 93.1826 152.957 90.2853 150.851 90.395Z" fill="#B45181"/>
<path d="M117.625 155.212H116.292V157.107L117.625 160.114C117.625 160.114 119.403 160.447 119.516 160.447C119.629 160.447 121.071 160.114 121.071 160.114L121.516 159.334C121.516 159.334 116.625 157.436 117.625 155.212Z" fill="#E6E6F0"/>
<path d="M159.408 156.993L157.407 161.449L165.854 165.473L172.524 165.696C172.524 165.696 173.079 164.138 170.855 163.359L169.078 163.026C169.078 163.026 166.745 158.793 166.522 156.807C166.522 156.807 164.299 157.253 163.967 158.921C163.963 158.885 160.853 160.443 159.408 156.993Z" fill="#B45181"/>
<path d="M116.625 154.765L115.946 155.321L112.959 157.772L119.848 166.918C119.848 166.918 123.736 168.59 125.517 166.918C125.517 166.918 126.612 165.821 124.185 164.913C124.185 164.913 122.294 165.246 122.294 163.355C122.294 161.464 122.739 159.459 123.389 159.013C123.389 159.013 121.721 158.456 121.279 158.903C120.939 159.278 120.64 159.689 120.388 160.128C120.388 160.128 116.402 158.552 116.625 154.765Z" fill="#B45181"/>
<path opacity="0.1" d="M150.519 84.604C150.406 85.169 150.257 85.7262 150.074 86.2722C150.651 87.6637 151.747 88.7749 153.128 89.3699C154.51 89.9648 156.069 89.9966 157.473 89.4585C157.766 89.1556 158.08 88.8733 158.411 88.6134C158.411 88.6134 151.297 80.5946 150.519 84.604Z" fill="black"/>
<path opacity="0.1" d="M149.906 99.4784C149.906 99.4784 153.352 104.044 158.353 104.157L149.906 99.4784Z" fill="black"/>
<g opacity="0.1">
<path d="M170.502 103.949C170.431 103.929 170.363 103.903 170.297 103.872C170.19 103.928 170.081 103.98 169.969 104.029C170.149 104.026 170.328 103.999 170.502 103.949Z" fill="black"/>
<path d="M171.685 97.6493C171.564 97.4937 171.434 97.3447 171.298 97.203C171.298 97.203 170.567 97.9346 168.764 98.0736C169.758 98.1725 170.76 98.0268 171.685 97.6493Z" fill="black"/>
<path d="M160.518 104.205L160.539 104.443C162.005 104.715 163.495 104.837 164.986 104.808C163.48 104.754 161.984 104.551 160.518 104.205Z" fill="black"/>
<path d="M152.852 125.818C147.073 125.148 142.185 123.703 143.726 122.478C145.266 121.252 146.836 114.236 146.836 114.236C146.836 114.236 146.836 114.276 146.861 114.21C146.925 114.03 146.916 113.831 146.836 113.658C144.401 108.262 144.726 98.659 144.726 98.659C144.726 98.659 144.394 93.8703 145.949 92.0741C147.106 90.7462 149.804 90.4718 151.107 90.417C150.985 90.4075 150.863 90.4075 150.742 90.417C150.742 90.417 146.409 90.3072 144.854 92.0888C143.299 93.8703 143.631 98.6736 143.631 98.6736C143.631 98.6736 143.306 108.291 145.741 113.672C145.821 113.846 145.83 114.044 145.766 114.225C145.741 114.291 145.741 114.25 145.741 114.25C145.741 114.25 144.197 121.245 142.627 122.47C141.057 123.696 145.96 125.145 151.753 125.81C157.546 126.476 159.864 128.148 159.864 128.148C159.981 128.008 160.083 127.857 160.171 127.698C159.043 127.153 156.721 126.257 152.852 125.818Z" fill="black"/>
</g>
<path d="M155.63 89.6158C158.821 89.6158 161.408 87.0231 161.408 83.8248C161.408 80.6265 158.821 78.0338 155.63 78.0338C152.438 78.0338 149.851 80.6265 149.851 83.8248C149.851 87.0231 152.438 89.6158 155.63 89.6158Z" fill="#FDC2CC"/>
<path opacity="0.1" d="M163.854 81.2348C163.376 82.4347 161.949 82.8883 160.696 83.1993C158.908 83.6382 156.98 84.0699 155.268 83.3895C155.046 83.2647 154.79 83.2147 154.538 83.2468C154.335 83.3285 154.165 83.4768 154.056 83.6675C152.169 86.36 152.476 89.9487 151.986 93.2045C151.833 94.2179 151.574 95.2641 150.891 96.0214C149.563 97.4847 147.055 97.4298 145.832 98.9845C145.025 100.009 145.018 101.432 145.025 102.738C145.025 104.13 145.013 105.524 144.989 106.919C144.967 107.834 144.923 108.781 144.51 109.593C143.809 110.969 142.247 111.624 140.805 112.154C139.907 112.491 138.98 112.831 138.016 112.74C137.052 112.648 136.089 112.008 135.965 111.042C135.793 109.732 137.14 108.818 138.067 107.874C139.549 106.371 140.159 104.183 140.214 102.068C140.266 101.214 140.142 100.359 139.849 99.5552C139.509 98.7248 138.903 98.0261 138.538 97.2066C137.414 94.6825 138.801 91.7632 140.462 89.5536C142.123 87.344 144.164 85.1893 144.518 82.4493C144.548 81.8564 144.633 81.2674 144.769 80.6897C145.025 79.8922 145.631 77.69 146.299 77.1851C147.368 76.3778 148.624 75.8543 149.949 75.6633C150.975 75.5133 152.023 75.5682 153.041 75.3706C154.231 75.1402 155.338 74.5731 156.528 74.361C159.101 73.9037 161.894 76.8998 163.022 79.263C163.332 79.9873 164.146 80.4995 163.854 81.2348Z" fill="black"/>
<path d="M163.854 81.0116C163.376 82.2115 161.949 82.6652 160.696 82.9761C158.908 83.4151 156.98 83.8468 155.268 83.1663C155.046 83.0416 154.79 82.9916 154.538 83.0237C154.335 83.1054 154.165 83.2537 154.056 83.4444C152.169 86.1368 152.476 89.7255 151.986 92.9814C151.833 93.9947 151.574 95.041 150.891 95.7982C149.563 97.2615 147.055 97.2066 145.832 98.7614C145.025 99.7857 145.018 101.209 145.025 102.515C145.025 103.907 145.013 105.301 144.989 106.696C144.967 107.611 144.923 108.558 144.51 109.37C143.809 110.746 142.247 111.401 140.805 111.931C139.907 112.268 138.98 112.608 138.016 112.516C137.052 112.425 136.089 111.785 135.965 110.819C135.793 109.509 137.14 108.595 138.067 107.651C139.549 106.147 140.159 103.96 140.214 101.845C140.266 100.991 140.142 100.136 139.849 99.3321C139.509 98.5017 138.903 97.8029 138.538 96.9835C137.414 94.4593 138.801 91.54 140.462 89.3305C142.123 87.1209 144.164 84.9662 144.518 82.2262C144.548 81.6332 144.633 81.0443 144.769 80.4666C145.025 79.6691 145.631 77.4668 146.299 76.962C147.368 76.1546 148.624 75.6311 149.949 75.4401C150.975 75.2902 152.023 75.345 153.041 75.1475C154.231 74.917 155.338 74.35 156.528 74.1378C159.101 73.6805 161.894 76.6766 163.022 79.0398C163.332 79.7642 164.146 80.2763 163.854 81.0116Z" fill="#F569BC"/>
<path d="M182.526 69.8796H278.595V166.146H182.526V69.8796Z" fill="#F7DF1E"/>
<path d="M207.791 150.328L215.143 145.868C216.563 148.389 217.852 150.522 220.947 150.522C223.915 150.522 225.784 149.358 225.784 144.837V114.075H234.812V144.961C234.812 154.33 229.336 158.595 221.334 158.595C214.114 158.595 209.923 154.846 207.795 150.324M239.714 149.355L247.063 145.089C248.997 148.257 251.512 150.577 255.962 150.577C259.704 150.577 262.088 148.704 262.088 146.117C262.088 143.015 259.638 141.918 255.517 140.107L253.261 139.137C246.749 136.361 242.426 132.871 242.426 125.503C242.426 118.717 247.585 113.548 255.645 113.548C261.383 113.548 265.501 115.553 268.476 120.784L261.449 125.309C259.901 122.529 258.226 121.431 255.645 121.431C253.002 121.431 251.323 123.111 251.323 125.309C251.323 128.024 252.998 129.121 256.868 130.797L259.124 131.766C266.79 135.058 271.119 138.42 271.119 145.982C271.119 154.125 264.734 158.585 256.152 158.585C247.756 158.585 242.353 154.56 239.725 149.344" fill="black"/>
<path d="M320.736 219.571C320.736 219.571 316.987 219.834 314.672 215.81C314.22 215 313.686 214.239 313.077 213.539C312.33 212.311 311.942 210.898 311.957 209.46C312.084 206.478 308.981 190.148 308.981 190.148C308.981 190.148 309.368 183.929 306.265 180.04C304.221 177.479 301.283 170.163 299.512 165.436C299.631 165.542 299.774 165.618 299.928 165.656L299.855 165.25H299.928L299.012 160.205C297.678 158.668 296.554 156.961 295.668 155.127L295.876 155.084L298.621 154.506C298.621 154.506 303.082 148.151 303.367 145.027H303.732H304.247C308.376 145.004 312.503 145.221 316.607 145.675C316.607 145.656 316.578 145.576 316.542 145.448C316.368 144.819 316.234 144.18 316.14 143.535H316.395L318.951 143.366C318.951 143.366 327.745 133.518 324.51 131.704C321.276 129.889 317.914 139.869 317.914 139.869L316.819 140.067L316.523 140.121C316.552 140.078 316.582 140.037 316.615 139.997C316.647 139.957 302.261 139.353 300.045 135.849C300.045 135.849 293.708 130.793 293.449 127.435C293.402 126.738 293.165 126.068 292.763 125.497C292.361 124.927 291.81 124.478 291.171 124.201C290.388 123.826 289.521 123.664 288.656 123.729L285.688 123.934L285.896 124.3H285.812C285.626 123.872 285.47 123.432 285.345 122.983H285.407C285.385 122.891 285.367 122.8 285.348 122.708C286.258 122.493 287.115 122.098 287.869 121.545C288.623 120.992 289.259 120.292 289.739 119.489C290.218 118.685 290.532 117.793 290.662 116.866C290.791 115.938 290.733 114.994 290.492 114.089C290.782 114.127 291.077 114.118 291.364 114.064C292.46 113.841 293.23 112.729 293.259 111.616C293.259 111.543 293.259 111.47 293.259 111.401C293.259 111.401 293.259 111.371 293.259 111.357C293.248 110.798 293.113 110.249 292.864 109.749C292.614 109.249 292.257 108.811 291.817 108.467C291.226 107.973 290.517 107.622 289.992 107.073C289.353 106.418 289.003 105.54 288.506 104.768C287.674 103.491 286.441 102.53 285.002 102.036C283.932 101.67 282.618 101.633 281.797 102.401C281.373 102.8 281.129 103.378 280.654 103.715C279.971 104.205 279.044 104.059 278.208 104.157C277.451 104.274 276.734 104.576 276.121 105.036C275.508 105.496 275.018 106.1 274.693 106.795C274.283 107.665 274.085 108.621 274.116 109.582C274.107 110.242 274.186 110.9 274.35 111.54C274.51 112.176 274.748 112.791 274.923 113.427C275.288 114.744 275.372 116.131 275.792 117.429C276.074 118.393 276.637 119.251 277.409 119.891L277.285 120.425C277.204 120.425 275.189 120.875 273.798 123.923C272.703 126.326 268.976 128.806 267.337 129.809C267.031 129.996 266.766 130.243 266.557 130.534C266.347 130.826 266.198 131.156 266.118 131.506C265.96 132.213 265.891 132.937 265.91 133.661C265.881 135.223 266.205 137.385 267.458 140.125C270.301 146.344 272.371 149.066 272.371 149.066C272.371 149.066 272.528 150.972 272.539 152.98C272.539 154.476 272.429 155.965 272.112 156.712C271.842 157.341 271.747 158.947 271.769 160.783C271.769 164.302 272.112 168.893 272.112 168.893C272.112 168.893 273.101 169.084 274.631 169.307L275.583 186.105C275.703 188.14 275.051 190.144 273.758 191.717C273.09 192.544 272.318 193.282 271.462 193.912C268.746 195.855 262.927 216.333 262.927 216.333C262.927 216.333 263.212 216.333 263.679 216.388L261.891 221.389C261.891 221.389 269.038 226.876 273.386 225.377C273.857 225.223 274.351 225.153 274.846 225.172C275.704 225.172 277.54 224.491 276.518 223.595C274.544 221.773 272.683 219.833 270.944 217.786C271.084 217.854 271.218 217.934 271.345 218.024V217.983L271.407 218.024C271.407 218.024 271.407 217.822 271.455 217.493L271.393 217.471C271.524 216.125 271.94 212.715 272.765 212.32C273.798 211.801 281.431 196.637 281.431 196.637L289.061 176.938C289.061 176.938 295.139 187.437 300.312 189.248V193.638C300.312 193.638 303.155 206.599 304.192 208.022C305.229 209.445 304.192 215.148 304.192 215.148C304.397 215.383 304.631 215.589 304.889 215.763L304.061 220.46C304.061 220.46 310.011 220.2 320.097 223.31C320.09 223.328 323.97 221.645 320.736 219.571ZM296.942 151.791L295.683 152.106L295.435 152.168C295.409 152.011 295.391 151.919 295.391 151.919C295.102 152.05 294.791 152.126 294.475 152.142C294.028 150.725 293.77 149.255 293.708 147.771C293.284 145.994 293.026 144.181 292.938 142.357C292.938 141.413 293.095 140.59 293.449 140.125L293.869 140.158L294.161 140.436L294.183 140.454L294.332 140.59L294.489 140.729L294.515 140.751L294.683 140.901L294.712 140.926L294.883 141.073L295.077 141.234L295.121 141.27L295.325 141.435L295.526 141.596L295.573 141.632L295.796 141.801L295.843 141.833L296.055 141.991L296.092 142.016L296.333 142.188L296.391 142.229L296.647 142.404H296.668L296.917 142.569L296.975 142.609L297.242 142.781L297.3 142.818L297.548 142.971L297.596 143L297.88 143.169L297.95 143.209L298.245 143.374H298.267L298.556 143.527L298.625 143.564L298.932 143.717L298.994 143.747L299.279 143.878L299.333 143.904L299.655 144.043L299.731 144.076L300.063 144.211C298.001 146.487 296.942 151.791 296.942 151.791Z" fill="url(#paint0_linear_343_197)"/>
<path d="M265.045 213.308L262.646 220.014C262.646 220.014 269.217 225.062 273.488 224.016C274.132 223.855 274.787 223.749 275.449 223.697C276.332 223.632 277.854 222.984 276.909 222.165C273.879 219.509 269.838 214.574 269.838 214.574L265.045 213.308Z" fill="#4F4D59"/>
<path d="M304.94 212.675L303.805 219.128C303.805 219.128 309.613 218.876 319.462 221.912C319.462 221.912 323.251 220.266 320.093 218.254C320.093 218.254 316.443 218.506 314.161 214.596C311.88 210.685 310.511 211.179 310.511 211.179L304.94 212.675Z" fill="#4F4D59"/>
<path d="M274.882 165.864L275.977 185.502C276.097 187.594 275.405 189.652 274.046 191.245C273.432 191.977 272.732 192.631 271.962 193.195C269.312 195.094 263.628 215.082 263.628 215.082C263.628 215.082 270.067 215.448 271.834 216.729C271.834 216.729 272.199 211.669 273.221 211.161C274.243 210.652 281.679 195.851 281.679 195.851L289.13 176.62C289.13 176.62 295.062 186.863 300.114 188.641V192.943C300.114 192.943 302.892 205.597 303.903 206.987C304.915 208.377 303.903 213.937 303.903 213.937C303.903 213.937 306.824 217.596 313.497 213.685C313.497 213.685 311.35 211.281 311.478 208.369C311.606 205.457 308.558 189.519 308.558 189.519C308.558 189.519 308.923 183.446 305.907 179.641C302.892 175.837 297.88 161.303 297.88 161.303L294.405 153.811L274.882 165.864Z" fill="#C48C96"/>
<g opacity="0.1">
<path d="M264.855 215.079C264.855 215.079 270.535 195.09 273.189 193.191C274.003 192.593 274.738 191.895 275.379 191.114C276.674 189.542 277.327 187.537 277.204 185.502L276.091 165.861L294.708 154.359L294.456 153.814L274.955 165.864L276.069 185.505C276.191 187.54 275.539 189.546 274.243 191.117C273.603 191.899 272.867 192.597 272.053 193.195C269.407 195.09 263.719 215.079 263.719 215.079C263.719 215.079 270.159 215.444 271.925 216.725C271.925 216.725 271.925 216.527 271.973 216.209C269.487 215.353 264.855 215.079 264.855 215.079Z" fill="black"/>
<path d="M305.13 213.941C305.13 213.941 306.141 208.373 305.13 206.99C304.119 205.607 301.341 192.946 301.341 192.946V188.637C296.292 186.866 290.357 176.616 290.357 176.616L289.918 177.765C291.631 180.486 296.197 187.239 300.209 188.644V192.946C300.209 192.946 302.987 205.6 303.998 206.99C305.009 208.38 303.998 213.941 303.998 213.941C303.998 213.941 305.407 215.719 308.518 215.477C306.192 215.284 305.13 213.941 305.13 213.941Z" fill="black"/>
</g>
<path d="M318.323 143.849L315.844 144.014L314.537 144.102V140.937L316.253 140.626L317.315 140.432C317.315 140.432 320.601 130.69 323.754 132.461C326.908 134.232 318.323 143.849 318.323 143.849Z" fill="#714B4F"/>
<path d="M278.555 117.77C278.555 117.77 276.912 124.095 276.409 128.013C275.905 131.931 288.149 128.774 288.149 128.774C288.149 128.774 283.476 123.081 286.13 120.045L278.555 117.77Z" fill="#714B4F"/>
<path d="M291.81 144.109L292.061 146.512L288.148 146.26L284.235 142.843L280.322 131.832L277.803 127.907L275.908 125.503L276.668 122.577C276.668 122.577 277.014 122.88 277.598 123.326C279.522 124.79 284.03 127.866 287.327 127.018C287.479 126.979 287.629 126.931 287.776 126.875L292.7 135.351L291.81 144.109Z" fill="#E6E6F0"/>
<path opacity="0.1" d="M277.671 121.834C277.671 121.834 275.653 122.2 274.262 125.251C273.196 127.585 269.589 130.006 267.979 130.983C267.672 131.171 267.406 131.419 267.196 131.712C266.986 132.004 266.836 132.336 266.756 132.688C266.432 134.129 266.307 136.818 268.074 140.685C270.852 146.757 272.871 149.413 272.871 149.413C272.871 149.413 273.375 155.486 272.619 157.257C271.863 159.027 272.619 168.769 272.619 168.769C272.619 168.769 285.874 171.301 290.295 168.769C294.715 166.238 294.084 156.496 294.084 156.496C294.084 156.496 298.249 165.352 299.764 165.605L298.88 160.67C298.88 160.67 293.956 155.354 293.704 148.524C293.704 148.524 292.189 142.324 293.452 140.681C293.452 140.681 314.789 142.452 316.052 140.934C316.052 140.934 302.038 140.301 299.892 136.884C299.892 136.884 293.704 131.949 293.452 128.66C293.415 128.043 293.222 127.445 292.891 126.923C292.559 126.402 292.1 125.973 291.558 125.679C290.699 125.189 289.713 124.969 288.728 125.046L285.877 125.243C285.877 125.243 290.802 133.972 290.55 135.121C290.298 136.269 290.802 145.495 290.802 145.495C290.802 145.495 285.104 133.222 282.596 131.832C280.088 130.442 277.164 124.72 277.164 124.72L277.668 121.83" fill="black"/>
<path opacity="0.1" d="M291.81 144.109L292.061 146.512L288.148 146.26L284.235 142.843L280.322 131.832L277.803 127.907L275.908 125.503L276.668 122.577C276.668 122.577 277.014 122.88 277.598 123.326L277.423 124.325C277.423 124.325 280.344 130.039 282.851 131.433C285.359 132.827 291.058 145.097 291.058 145.097C291.058 145.097 290.554 135.86 290.806 134.722C290.977 133.95 288.765 129.684 287.327 127.018C287.479 126.979 287.629 126.931 287.776 126.875L292.7 135.351L291.81 144.109Z" fill="black"/>
<path opacity="0.1" d="M315.844 144.014L314.537 144.102V140.937L316.253 140.626C315.654 141.42 315.676 142.825 315.844 144.014Z" fill="black"/>
<path d="M277.671 121.457C277.671 121.457 275.653 121.823 274.262 124.874C273.196 127.208 269.589 129.63 267.979 130.606C267.672 130.794 267.406 131.042 267.196 131.335C266.986 131.627 266.836 131.959 266.756 132.311C266.432 133.752 266.307 136.441 268.074 140.308C270.852 146.381 272.871 149.037 272.871 149.037C272.871 149.037 273.375 155.109 272.619 156.88C271.863 158.65 272.619 168.392 272.619 168.392C272.619 168.392 285.874 170.924 290.295 168.392C294.715 165.861 294.084 156.119 294.084 156.119C294.084 156.119 298.245 164.961 299.764 165.232L298.88 160.297C298.88 160.297 293.956 154.981 293.704 148.151C293.704 148.151 292.189 141.951 293.452 140.308C293.452 140.308 298.377 145.623 303.933 145.495C307.981 145.471 312.028 145.682 316.052 146.128C316.052 146.128 314.789 142.079 316.052 140.56C316.052 140.56 302.038 139.928 299.892 136.511C299.892 136.511 293.704 131.576 293.452 128.287C293.415 127.67 293.222 127.072 292.891 126.55C292.559 126.028 292.1 125.6 291.558 125.306C290.699 124.816 289.713 124.596 288.728 124.673L285.877 124.87C285.877 124.87 290.802 133.599 290.55 134.747C290.298 135.896 290.802 145.122 290.802 145.122C290.802 145.122 285.104 132.842 282.596 131.451C280.088 130.061 277.164 124.354 277.164 124.354L277.668 121.464" fill="#C48C96"/>
<path opacity="0.1" d="M274.883 134.74C274.883 134.74 277.912 144.983 279.679 146.253C281.446 147.522 292.178 153.971 295.336 152.453C295.336 152.453 296.095 156.251 294.971 157.136C294.971 157.136 283.198 156.675 283.103 156.631C283.103 156.631 275.401 155.618 274.138 151.824C272.875 148.031 271.36 141.581 271.36 141.581L274.883 134.74Z" fill="black"/>
<path d="M291.054 146.318C291.298 146.318 291.496 146.035 291.496 145.686C291.496 145.336 291.298 145.053 291.054 145.053C290.81 145.053 290.612 145.336 290.612 145.686C290.612 146.035 290.81 146.318 291.054 146.318Z" fill="#BA7855"/>
<path d="M292.313 150.745C292.557 150.745 292.755 150.462 292.755 150.112C292.755 149.763 292.557 149.479 292.313 149.479C292.069 149.479 291.872 149.763 291.872 150.112C291.872 150.462 292.069 150.745 292.313 150.745Z" fill="#BA7855"/>
<g opacity="0.1">
<path d="M273.506 168.253C273.506 168.253 272.747 158.511 273.506 156.741C274.265 154.97 273.758 148.898 273.758 148.898C273.758 148.898 271.739 146.242 268.961 140.169C267.191 136.302 267.319 133.613 267.643 132.172C267.723 131.82 267.873 131.488 268.083 131.196C268.293 130.903 268.559 130.655 268.866 130.467C270.476 129.48 274.079 127.069 275.149 124.735C275.934 123.023 276.916 122.156 277.624 121.724L277.671 121.446C277.671 121.446 275.653 121.812 274.262 124.863C273.196 127.197 269.589 129.619 267.979 130.595C267.672 130.783 267.406 131.031 267.196 131.324C266.986 131.617 266.836 131.949 266.756 132.3C266.432 133.741 266.307 136.43 268.074 140.297C270.852 146.37 272.871 149.026 272.871 149.026C272.871 149.026 273.375 155.098 272.619 156.869C271.863 158.639 272.619 168.381 272.619 168.381C272.619 168.381 282.088 170.188 287.688 169.219C282.034 169.896 273.506 168.253 273.506 168.253Z" fill="black"/>
<path d="M290.547 134.74C290.375 135.519 290.547 140.103 290.689 142.913C291.299 144.16 291.682 144.991 291.682 144.991C291.682 144.991 291.178 135.753 291.43 134.616C291.671 133.518 287.236 125.595 286.794 124.812L285.874 124.874C285.874 124.874 290.802 133.602 290.547 134.74Z" fill="black"/>
<path d="M304.816 145.367C299.26 145.495 294.336 140.18 294.336 140.18C294.188 140.386 294.08 140.618 294.018 140.864C295.478 142.225 299.494 145.594 303.933 145.492C307.981 145.467 312.028 145.679 316.052 146.125C316.052 146.125 316.027 146.04 315.986 145.898C312.276 145.513 308.547 145.336 304.816 145.367Z" fill="black"/>
<path d="M294.96 155.994C294.96 155.994 295.011 156.785 294.982 157.97C296.296 160.582 298.687 165.049 299.757 165.228L299.57 164.189C297.734 161.877 294.96 155.994 294.96 155.994Z" fill="black"/>
</g>
<path d="M298.501 154.718L295.818 155.285L293.701 155.731L294.836 152.567L295.628 152.369L296.858 152.062C296.858 152.062 298.625 143.205 302.162 143.838C305.7 144.471 298.501 154.718 298.501 154.718Z" fill="#714B4F"/>
<path opacity="0.1" d="M295.821 155.296L293.704 155.742L294.839 152.578L295.632 152.38C295.807 153.341 295.871 154.32 295.821 155.296Z" fill="black"/>
<path d="M274.883 134.488C274.883 134.488 277.912 144.731 279.679 146C281.446 147.27 292.178 153.719 295.336 152.201C295.336 152.201 296.095 155.998 294.971 156.883C294.971 156.883 283.198 156.423 283.103 156.379C283.103 156.379 275.401 155.365 274.138 151.572C272.875 147.778 271.36 141.329 271.36 141.329L274.883 134.488Z" fill="#C48C96"/>
<path opacity="0.1" d="M278.679 118.04C278.679 118.04 278.423 119.032 278.08 120.473C278.779 121.8 279.895 122.86 281.254 123.488C282.614 124.116 284.143 124.278 285.604 123.948C285.301 122.65 285.366 121.336 286.253 120.319L278.679 118.04Z" fill="black"/>
<path d="M283.983 123.861C287.749 123.861 290.802 120.801 290.802 117.027C290.802 113.253 287.749 110.193 283.983 110.193C280.217 110.193 277.164 113.253 277.164 117.027C277.164 120.801 280.217 123.861 283.983 123.861Z" fill="#714B4F"/>
<path opacity="0.1" d="M289.904 115.147C290.398 115.285 290.916 115.317 291.423 115.242C291.948 115.099 292.413 114.789 292.746 114.358C293.08 113.927 293.263 113.398 293.27 112.853C293.26 112.308 293.129 111.771 292.886 111.283C292.643 110.795 292.294 110.368 291.865 110.032C291.288 109.55 290.598 109.209 290.069 108.672C289.444 108.031 289.101 107.175 288.608 106.422C287.797 105.176 286.593 104.237 285.188 103.755C284.144 103.389 282.863 103.36 282.059 104.121C281.647 104.512 281.406 105.072 280.946 105.405C280.278 105.88 279.373 105.741 278.559 105.836C277.821 105.949 277.122 106.241 276.524 106.688C275.926 107.134 275.446 107.721 275.127 108.397C274.504 109.776 274.385 111.33 274.791 112.787C274.948 113.409 275.182 114.009 275.35 114.616C275.715 115.904 275.788 117.254 276.197 118.523C276.606 119.793 277.449 121.036 278.727 121.417C278.626 119.992 278.907 118.566 279.541 117.287C279.645 117.007 279.851 116.777 280.117 116.643C280.345 116.584 280.584 116.584 280.811 116.643C282.412 116.88 284.046 116.549 285.429 115.706C285.914 115.414 286.67 114.404 287.185 114.305C287.849 114.192 289.211 114.993 289.904 115.147Z" fill="black"/>
<path d="M289.904 114.894C290.398 115.032 290.916 115.065 291.423 114.989C291.948 114.847 292.413 114.536 292.746 114.105C293.08 113.674 293.263 113.146 293.27 112.6C293.26 112.055 293.129 111.519 292.886 111.031C292.643 110.543 292.294 110.115 291.865 109.78C291.288 109.297 290.598 108.957 290.069 108.419C289.444 107.779 289.101 106.923 288.608 106.169C287.797 104.923 286.593 103.985 285.188 103.502C284.144 103.137 282.863 103.107 282.059 103.868C281.647 104.26 281.406 104.819 280.946 105.152C280.278 105.628 279.373 105.489 278.559 105.584C277.821 105.696 277.122 105.989 276.524 106.435C275.926 106.882 275.446 107.469 275.127 108.145C274.504 109.523 274.385 111.077 274.791 112.535C274.948 113.157 275.182 113.757 275.35 114.364C275.715 115.651 275.788 117.001 276.197 118.271C276.606 119.54 277.449 120.784 278.727 121.164C278.629 119.74 278.912 118.316 279.548 117.038C279.652 116.758 279.858 116.528 280.125 116.394C280.352 116.336 280.591 116.336 280.818 116.394C282.419 116.631 284.053 116.3 285.436 115.458C285.922 115.165 286.677 114.155 287.192 114.056C287.849 113.939 289.211 114.741 289.904 114.894Z" fill="#503F43"/>
<path d="M357.93 92.3412L352.367 154.787L327.361 161.738L302.425 154.787L296.869 92.3412H357.93Z" fill="#E44D26"/>
<path d="M327.398 156.426L347.603 150.814L352.349 97.4481H327.398V156.426Z" fill="#F16529"/>
<path d="M316.585 112.769H327.398V105.108H308.233L308.415 107.164L310.295 128.272H327.401V120.612H317.286L316.585 112.769ZM318.323 132.103H310.657L311.726 144.131L327.365 148.499H327.401V140.506H327.369L318.856 138.201L318.323 132.103Z" fill="#EBEBEB"/>
<path d="M302.553 75.367H306.437V79.2118H309.989V75.367H313.873V87.0148H309.989V83.1151H306.437V87.0148H302.553V75.367ZM318.98 79.2301H315.559V75.367H326.284V79.2301H322.864V87.0148H318.983V79.2301H318.98ZM327.989 75.367H332.041L334.534 79.4605L337.024 75.367H341.076V87.0148H337.206V81.2421L334.534 85.3832H334.469L331.793 81.2421V87.0148H327.989V75.367ZM343.007 75.367H346.891V83.1627H352.367V87.0111H343.018V75.367H343.007Z" fill="black"/>
<path d="M327.373 128.272H336.783L335.896 138.208L327.373 140.513V148.499L343.044 144.145L343.157 142.85L344.953 122.683L345.139 120.627H327.373V128.287V128.272ZM327.373 112.75V112.769H345.837L345.99 111.046L346.355 107.161L346.537 105.105H327.373V112.747V112.75Z" fill="white"/>
<path d="M133.873 138.442C133.161 136.353 132.135 133.687 131.318 133.079C131.268 133.04 131.214 133.007 131.157 132.981H131.055V130.401L129.135 130.709C128.826 129.777 128.593 128.821 128.437 127.852C128.622 128.037 128.858 128.164 129.115 128.215C129.371 128.266 129.637 128.241 129.879 128.141C129.846 128.089 129.821 128.035 129.792 127.98L129.879 127.943C129.577 127.409 129.417 126.805 129.416 126.191C129.432 125.63 129.521 125.074 129.682 124.537C130.025 123.348 130.606 122.236 130.931 121.044C131.138 120.274 131.237 119.478 131.223 118.68C131.233 117.329 130.925 115.995 130.325 114.784C130.176 114.436 129.942 114.131 129.646 113.896C129.376 113.746 129.098 113.61 128.813 113.489C128.337 113.168 127.927 112.758 127.605 112.282C126.241 110.618 124.416 109.397 122.359 108.774C121.824 108.575 121.244 108.529 120.684 108.642C119.395 109.008 118.924 110.592 117.88 111.43C116.957 112.162 115.69 112.246 114.536 112.494C113.352 112.696 112.262 113.269 111.423 114.13C110.877 114.755 110.579 115.56 110.587 116.39C110.555 116.778 110.624 117.167 110.785 117.521C110.947 117.875 111.197 118.181 111.51 118.41C111.867 118.645 112.271 118.798 112.694 118.858C113.117 118.918 113.548 118.884 113.956 118.757C113.637 119.861 113.55 121.018 113.698 122.157C113.847 123.296 114.229 124.392 114.82 125.376C115.411 126.36 116.199 127.211 117.134 127.876C118.069 128.54 119.131 129.004 120.253 129.238L120.479 129.641C121.17 130.931 121.694 132.304 122.038 133.727C120.271 134.733 118.34 135.673 117.176 135.761C117.13 136.217 117.045 136.669 116.924 137.111C116.652 138.221 116.128 139.254 115.394 140.129C113.81 141.914 106.681 155.413 106.681 155.413C106.681 155.413 106.454 155.951 106.089 156.876C101.661 157.421 94.4371 158.208 92.4184 157.802L84.4969 150.258C84.4969 150.258 81.9416 152.216 82.1606 154.593L80.7333 153.233C80.7333 153.233 73.2061 158.987 85.0919 162.744L103.176 164.847C101.453 170.057 99.8471 176.118 100.344 179.418H100.493C100.839 179.418 101.184 179.391 101.526 179.338L101.493 179.923L99.7522 211.175C99.7522 211.175 99.3543 216.93 104.702 219.512C104.702 219.512 111.24 238.766 108.663 240.95C108.663 240.95 108.97 241.111 109.484 241.337L104.107 246.093C104.107 246.093 100.146 247.085 97.9671 246.887C97.5841 246.835 97.1953 246.925 96.8748 247.142C96.5543 247.359 96.3246 247.686 96.2295 248.061C96.2295 248.102 96.2295 248.142 96.2076 248.186V248.237C96.2076 248.277 96.2076 248.321 96.2076 248.365C96.2076 248.409 96.2076 248.398 96.2076 248.412C96.2076 248.427 96.2076 248.486 96.2076 248.522V248.57C96.2076 248.614 96.2076 248.654 96.2331 248.698V248.745C96.2453 248.792 96.2599 248.837 96.2769 248.881V248.925C96.2952 248.969 96.3171 249.012 96.339 249.056V249.086C96.3645 249.13 96.3901 249.173 96.4193 249.217L96.4448 249.254C96.4765 249.3 96.5118 249.347 96.5507 249.393L96.5799 249.429C96.6201 249.477 96.6639 249.521 96.7113 249.569H96.7332L96.8793 249.693L96.9121 249.718L97.091 249.847L97.1348 249.876L97.3429 249.997H97.3757L97.5984 250.106H97.6312L97.8904 250.212L97.9452 250.234L98.2336 250.329H98.281L98.5913 250.41H98.6169L98.9819 250.479H99.0513L99.4163 250.534H99.4857L99.9055 250.575C100.72 250.637 101.818 250.659 103.089 250.655C103.089 250.655 103.089 250.688 103.089 250.703C103.089 250.717 103.089 250.776 103.089 250.812V250.86C103.089 250.904 103.089 250.944 103.114 250.988V251.035C103.126 251.082 103.141 251.127 103.158 251.171V251.215C103.176 251.259 103.198 251.303 103.22 251.346V251.376C103.246 251.42 103.271 251.463 103.3 251.507L103.326 251.544C103.358 251.59 103.393 251.637 103.432 251.683L103.461 251.72C103.501 251.767 103.545 251.811 103.592 251.859H103.611L103.757 251.983L103.79 252.009L103.968 252.137L104.012 252.166L104.217 252.287H104.25L104.472 252.396H104.505L104.764 252.502L104.819 252.524L105.107 252.619H105.155L105.465 252.7H105.491L105.856 252.769H105.925L106.29 252.824H106.359L106.779 252.865C111.93 253.263 128.368 252.071 128.368 252.071V252.023V251.965C128.532 251.196 129.321 246.73 126.517 243.426C126.601 243.339 126.682 243.247 126.758 243.152C126.758 243.152 124.568 239.38 125.769 238.191C126.97 237.002 119.968 216.542 119.968 216.542C119.968 216.542 116.205 210.586 118.384 203.837C120.563 197.087 118.187 189.745 118.187 189.745C118.187 189.745 123.389 188.202 123.484 181.789C123.484 181.595 123.484 181.394 123.484 181.192C123.593 181.208 123.702 181.216 123.812 181.214C123.885 181.22 123.958 181.22 124.031 181.214C124.031 181.214 123.042 177.64 124.228 175.061C125.415 172.482 127.992 174.864 130.368 164.343C132.088 156.73 133.599 147.976 134.307 143.714C134.598 141.948 134.449 140.137 133.873 138.442ZM88.673 160.758L86.8661 159.038C87.4647 159.287 88.1291 159.528 88.8702 159.77L95.6783 160.571C92.6411 160.845 89.8047 160.999 88.673 160.768V160.758Z" fill="url(#paint1_linear_343_197)"/>
<path d="M105.914 159.755C105.914 159.755 91.9038 161.705 88.9834 161.12L81.2007 153.708C81.2007 153.708 73.8049 159.364 85.4827 163.07L107.276 165.605L105.914 159.755Z" fill="#FDC2CC"/>
<path opacity="0.05" d="M105.914 159.755C105.914 159.755 91.9038 161.705 88.9834 161.12L81.2007 153.708C81.2007 153.708 73.8049 159.364 85.4827 163.07L107.276 165.605L105.914 159.755Z" fill="black"/>
<path d="M78.4882 164.675L48.2114 156.262L41.4653 80.4263H115.602L108.849 156.251L78.4882 164.675Z" fill="#264DE4"/>
<path d="M103.067 151.425L108.838 86.6307H78.5396V158.226L103.067 151.425Z" fill="#2965F1"/>
<path d="M56.9509 114.744L57.7832 124.043H78.5543V114.744H56.9509ZM55.279 95.9189L56.1222 105.218H78.5506V95.9189H55.2607H55.279ZM78.5506 138.9H78.5105L68.1724 136.101L67.5117 128.682H58.1775L59.477 143.286L78.4886 148.587H78.5324L78.5506 138.9Z" fill="#EBEBEB"/>
<path d="M58.9146 59.8085H70.1543V64.5203H63.6127V69.2321H70.1543V73.9439H58.9146V59.8085ZM72.4212 59.8085H83.661V63.9057H77.1047V64.7252H83.6463V74.1488H72.403V69.8467H78.9446V69.0273H72.403V59.8085H72.4212ZM85.9279 59.8085H97.1676V63.9057H90.5932V64.7252H97.1348V74.1488H85.8914V69.8467H92.433V69.0273H85.8914V59.8085H85.9279Z" fill="black"/>
<path d="M100.077 114.744L101.753 95.9189H78.4883V105.218H91.5678L90.7246 114.73H78.4883V124.029H89.9178L88.8227 136.101L78.4883 138.907V148.583L97.5144 143.297L97.6531 141.724L99.8434 117.235L100.07 114.737L100.077 114.744Z" fill="white"/>
<path d="M110.977 238.927L104.166 244.97C104.166 244.97 100.274 245.947 98.1351 245.749C95.996 245.552 95.0213 249.064 100.081 249.455C105.14 249.847 121.29 248.676 121.29 248.676C121.29 248.676 122.845 242.435 118.176 238.927H110.977Z" fill="#47465A"/>
<path opacity="0.05" d="M110.977 238.927L104.166 244.97C104.166 244.97 100.274 245.947 98.1351 245.749C95.996 245.552 95.0213 249.064 100.081 249.455C105.14 249.847 121.29 248.676 121.29 248.676C121.29 248.676 122.845 242.435 118.176 238.927H110.977Z" fill="black"/>
<path opacity="0.3" d="M121.531 245.98C121.519 246.691 121.437 247.399 121.286 248.094C121.286 248.094 105.137 249.265 100.077 248.873C97.6423 248.687 96.6092 247.776 96.4267 246.905C96.204 247.908 97.0874 249.228 100.077 249.466C105.137 249.858 121.286 248.687 121.286 248.687C121.477 247.798 121.559 246.889 121.531 245.98Z" fill="white"/>
<path d="M118.95 128.378C118.95 128.378 123.232 134.422 121.673 138.519C120.114 142.616 129.846 134.228 129.846 134.228C129.846 134.228 126.732 128.744 128.291 122.891L118.95 128.378Z" fill="#FDC2CC"/>
<path d="M117.782 241.268L110.977 247.311C110.977 247.311 107.086 248.288 104.947 248.091C102.807 247.893 101.833 251.405 106.892 251.796C111.952 252.188 128.101 251.017 128.101 251.017C128.101 251.017 129.657 244.776 124.988 241.268H117.782Z" fill="#47465A"/>
<path d="M119.739 239.903C118.724 241.158 117.293 241.641 115.796 241.714C112.394 241.875 108.649 239.903 108.649 239.903C111.178 237.76 104.757 218.843 104.757 218.843C99.5042 216.308 99.8911 210.652 99.8911 210.652L101.592 179.96L102.023 172.248L107.473 168.934L111.766 172.226L115.84 175.358C116.105 176.354 116.276 177.373 116.351 178.401C116.826 185.568 111.171 187.254 111.171 187.254C111.171 187.254 113.507 194.468 111.365 201.101C109.222 207.733 112.92 213.582 112.92 213.582C112.92 213.582 119.925 233.864 118.76 235.034C117.596 236.205 119.739 239.903 119.739 239.903Z" fill="#565171"/>
<path opacity="0.05" d="M119.739 239.903C118.724 241.158 117.293 241.641 115.796 241.714C112.394 241.875 108.649 239.903 108.649 239.903C111.178 237.76 104.757 218.843 104.757 218.843C99.5042 216.308 99.8911 210.652 99.8911 210.652L101.592 179.96L102.023 172.248L107.473 168.934L111.766 172.226L115.84 175.358C116.105 176.354 116.276 177.373 116.351 178.401C116.826 185.568 111.171 187.254 111.171 187.254C111.171 187.254 113.507 194.468 111.365 201.101C109.222 207.733 112.92 213.582 112.92 213.582C112.92 213.582 119.925 233.864 118.76 235.034C117.596 236.205 119.739 239.903 119.739 239.903Z" fill="black"/>
<path d="M126.539 242.241C123.232 246.335 115.449 242.241 115.449 242.241C115.606 242.096 115.723 241.914 115.788 241.711C117.216 237.822 110.973 219.231 110.973 219.231C105.72 216.696 105.133 210.652 105.133 210.652L103.757 179.404L103.578 175.358L111.766 172.226L114.281 171.264L122.659 177.699C123.018 179.032 123.195 180.408 123.184 181.789C123.078 188.085 117.979 189.606 117.979 189.606C117.979 189.606 120.315 196.82 118.172 203.453C116.029 210.085 119.738 215.916 119.738 215.916C119.738 215.916 126.743 236.198 125.579 237.368C124.414 238.539 126.539 242.241 126.539 242.241Z" fill="#565171"/>
<path opacity="0.1" d="M123.184 181.789C121.501 181.547 118.095 179.517 116.347 178.416C115.679 177.995 115.252 177.713 115.252 177.713C115.252 177.713 113.5 172.837 108.831 176.543C107.312 177.779 105.597 178.751 103.757 179.418C103.054 179.668 102.329 179.85 101.592 179.963L102.023 172.252L107.473 168.937L111.766 172.23L114.281 171.268L122.659 177.699C123.018 179.032 123.195 180.408 123.184 181.789Z" fill="black"/>
<path d="M133.716 144.369C133.022 148.554 131.526 157.172 129.846 164.632C127.51 174.966 124.98 172.625 123.816 175.16C122.651 177.695 123.622 181.203 123.622 181.203C121.677 181.397 115.256 177.11 115.256 177.11C115.256 177.11 113.503 172.233 108.834 175.939C104.166 179.645 100.468 179.447 100.468 179.447C99.493 173.013 106.695 155.852 106.695 155.852C106.695 155.852 113.701 142.591 115.256 140.853C115.977 139.994 116.492 138.98 116.76 137.89C116.879 137.456 116.962 137.013 117.008 136.566C119.538 136.372 125.769 132.081 125.769 132.081L130.635 131.301V133.837C130.693 133.862 130.747 133.896 130.796 133.935C131.595 134.546 132.621 137.151 133.303 139.203C133.862 140.865 134.004 142.639 133.716 144.369Z" fill="#E1A0A7"/>
<path d="M110.978 162.682L108.462 162.389L89.1844 160.147C77.5029 156.441 84.9024 150.785 84.9024 150.785L92.6851 158.197C94.9302 158.647 103.739 157.597 107.685 157.099C108.868 156.946 109.616 156.843 109.616 156.843L110.978 162.682Z" fill="#FDC2CC"/>
<path opacity="0.1" d="M129.847 136.357C129.847 136.357 124.787 132.264 117.183 145.521C109.579 158.778 107.842 156.635 107.842 156.635C107.842 156.635 109.397 162.488 108.619 163.655C108.619 163.655 113.872 163.263 115.818 163.655C117.764 164.046 129.828 148.835 129.828 148.835C129.828 148.835 136.074 140.257 129.847 136.357Z" fill="black"/>
<path opacity="0.1" d="M129.653 135.578C129.653 135.578 124.593 131.484 117.004 144.742C109.415 157.999 107.663 155.855 107.663 155.855C107.663 155.855 113.693 162.484 115.639 162.876C117.585 163.267 129.649 148.056 129.649 148.056C129.649 148.056 135.881 139.478 129.653 135.578Z" fill="black"/>
<path opacity="0.1" d="M108.459 162.4C108.539 160.955 107.995 158.416 107.681 157.099C108.864 156.946 109.612 156.843 109.612 156.843L110.974 162.696L108.459 162.4Z" fill="black"/>
<path d="M129.847 135.966C129.847 135.966 124.787 131.872 117.183 145.133C109.579 158.394 107.842 156.247 107.842 156.247C107.842 156.247 109.397 162.1 108.619 163.267C108.619 163.267 113.872 162.876 115.818 163.267C117.764 163.658 129.828 148.448 129.828 148.448C129.828 148.448 136.074 139.865 129.847 135.966Z" fill="#E1A0A7"/>
<path opacity="0.1" d="M128.5 123.29L119.144 128.744C119.539 129.32 119.905 129.916 120.239 130.53C120.777 130.639 121.325 130.694 121.874 130.694C124.367 130.694 125.525 128.071 127.032 126.304C126.923 124.899 128.069 124.863 128.5 123.29Z" fill="black"/>
<path d="M121.673 130.314C126.187 130.314 129.847 126.647 129.847 122.123C129.847 117.599 126.187 113.932 121.673 113.932C117.159 113.932 113.5 117.599 113.5 122.123C113.5 126.647 117.159 130.314 121.673 130.314Z" fill="#FDC2CC"/>
<path opacity="0.1" d="M111.342 115.498C112.167 114.651 113.237 114.087 114.401 113.888C115.537 113.643 116.781 113.57 117.687 112.842C118.712 112.019 119.172 110.453 120.439 110.102C120.989 109.992 121.56 110.037 122.085 110.234C124.106 110.846 125.9 112.045 127.24 113.68C127.557 114.149 127.961 114.552 128.43 114.869C128.709 114.987 128.982 115.12 129.248 115.267C129.538 115.499 129.767 115.799 129.912 116.142C130.824 117.988 131.034 120.104 130.503 122.094C130.186 123.268 129.616 124.358 129.277 125.529C128.937 126.699 128.853 128.024 129.47 129.07C128.872 129.377 128.116 128.989 127.74 128.43C127.364 127.87 127.251 127.182 127.054 126.535C126.666 125.264 125.936 124.124 124.944 123.242C124.331 122.701 123.235 122.335 122.808 123.034C122.644 123.305 122.655 123.652 122.513 123.934C122.235 124.486 121.417 124.596 120.895 124.3C120.381 123.944 120.02 123.407 119.884 122.796C119.085 120.078 117.716 118.37 114.817 119.529C113.722 119.961 112.463 120.261 111.423 119.529C110.09 118.549 110.357 116.606 111.342 115.498Z" fill="black"/>
<path d="M111.342 115.3C112.167 114.453 113.237 113.89 114.401 113.691C115.537 113.446 116.781 113.372 117.687 112.644C118.712 111.821 119.172 110.256 120.439 109.904C120.989 109.794 121.56 109.84 122.085 110.036C124.106 110.648 125.9 111.847 127.24 113.482C127.557 113.951 127.961 114.355 128.43 114.671C128.709 114.789 128.982 114.923 129.248 115.07C129.538 115.301 129.767 115.602 129.912 115.944C130.824 117.79 131.034 119.906 130.503 121.896C130.186 123.07 129.616 124.161 129.277 125.331C128.937 126.502 128.853 127.826 129.47 128.872C128.872 129.18 128.116 128.792 127.74 128.232C127.364 127.672 127.251 126.985 127.054 126.337C126.666 125.066 125.936 123.927 124.944 123.045C124.331 122.503 123.235 122.138 122.808 122.836C122.644 123.107 122.655 123.454 122.513 123.736C122.235 124.289 121.417 124.398 120.895 124.102C120.381 123.746 120.02 123.209 119.884 122.598C119.085 119.88 117.716 118.172 114.817 119.332C113.722 119.763 112.463 120.063 111.423 119.332C110.09 118.355 110.357 116.412 111.342 115.3Z" fill="#8F5A6A"/>
<path opacity="0.05" d="M130.785 133.921H126.831C126.831 133.921 119.048 137.82 118.855 137.626C118.723 137.495 117.519 137.722 116.756 137.879C116.875 137.445 116.958 137.002 117.004 136.555C119.534 136.361 125.765 132.07 125.765 132.07L130.631 131.29V133.826C130.686 133.851 130.738 133.883 130.785 133.921Z" fill="black"/>
<path opacity="0.3" d="M128.339 248.317C128.327 249.029 128.245 249.737 128.094 250.432C128.094 250.432 111.945 251.602 106.885 251.211C104.45 251.024 103.417 250.114 103.235 249.243C103.012 250.245 103.896 251.566 106.885 251.804C111.945 252.195 128.094 251.024 128.094 251.024C128.285 250.135 128.367 249.226 128.339 248.317Z" fill="white"/>
<g opacity="0.05">
<path d="M106.984 175.745C104.359 177.83 102.038 178.672 100.512 179.038C100.512 179.184 100.541 179.327 100.563 179.466C100.563 179.466 104.261 179.66 108.93 175.957C109.653 175.336 110.508 174.888 111.43 174.648C110.412 174.147 108.959 174.18 106.984 175.745Z" fill="black"/>
<path d="M133.391 139.185C132.694 137.133 131.683 134.532 130.884 133.917C130.834 133.877 130.78 133.844 130.723 133.818C130.723 133.818 129.113 133.873 129.168 133.917C129.967 134.528 130.748 136.939 131.446 138.987C132.011 140.653 132.156 142.432 131.869 144.167C131.176 148.352 129.679 156.971 128 164.43C125.663 174.765 123.134 172.424 121.969 174.959C121.013 177.037 121.491 179.766 121.699 180.684C122.328 181 123.018 181.175 123.721 181.2C123.721 181.2 122.747 177.691 123.915 175.156C125.083 172.621 127.613 174.962 129.945 164.628C131.636 157.151 133.121 148.532 133.815 144.365C134.102 142.63 133.956 140.85 133.391 139.185Z" fill="black"/>
</g>
<path d="M156.006 175.61C156.675 175.063 157.162 174.326 157.404 173.495C157.586 172.654 157.228 171.648 156.425 171.341C155.527 170.997 154.567 171.619 153.841 172.252C153.114 172.885 152.278 173.602 151.326 173.466C151.815 173.021 152.182 172.457 152.389 171.828C152.596 171.199 152.637 170.527 152.508 169.877C152.467 169.608 152.354 169.355 152.18 169.146C151.68 168.612 150.778 168.842 150.179 169.263C148.281 170.602 147.752 173.185 147.741 175.511C147.551 174.673 147.712 173.799 147.704 172.95C147.697 172.102 147.463 171.121 146.741 170.675C146.292 170.434 145.789 170.314 145.281 170.327C144.426 170.295 143.477 170.382 142.893 171.008C142.163 171.783 142.357 173.089 142.988 173.934C143.62 174.78 144.576 175.325 145.459 175.917C146.167 176.339 146.771 176.916 147.226 177.604C147.28 177.699 147.324 177.8 147.358 177.904H152.706C153.904 177.292 155.014 176.52 156.006 175.61Z" fill="#DA2930"/>
<path d="M165.829 244.301C166.68 243.507 167.479 242.57 167.727 241.433C167.976 240.295 167.49 238.927 166.402 238.506C165.187 238.038 163.884 238.872 162.898 239.739C161.912 240.606 160.781 241.568 159.492 241.385C160.156 240.782 160.652 240.017 160.933 239.164C161.214 238.311 161.27 237.4 161.095 236.52C161.038 236.156 160.884 235.815 160.649 235.532C159.974 234.8 158.747 235.118 157.941 235.689C155.385 237.518 154.655 241.005 154.637 244.158C154.378 243.02 154.597 241.835 154.589 240.668C154.582 239.501 154.265 238.21 153.283 237.58C152.671 237.251 151.983 237.09 151.289 237.112C150.132 237.068 148.844 237.185 148.055 238.034C147.073 239.088 147.325 240.855 148.183 242.014C149.041 243.174 150.337 243.902 151.53 244.703C152.489 245.275 153.306 246.057 153.921 246.989C153.994 247.12 154.054 247.257 154.1 247.399H161.354C162.978 246.573 164.484 245.531 165.829 244.301Z" fill="#DA2930"/>
</g>
<defs>
<linearGradient id="paint0_linear_343_197" x1="293.547" y1="225.633" x2="293.547" y2="101.783" gradientUnits="userSpaceOnUse">
<stop stop-color="#808080" stop-opacity="0.25"/>
<stop offset="0.54" stop-color="#808080" stop-opacity="0.12"/>
<stop offset="1" stop-color="#808080" stop-opacity="0.1"/>
</linearGradient>
<linearGradient id="paint1_linear_343_197" x1="106.425" y1="253.146" x2="106.425" y2="108.569" gradientUnits="userSpaceOnUse">
<stop stop-color="#808080" stop-opacity="0.25"/>
<stop offset="0.54" stop-color="#808080" stop-opacity="0.12"/>
<stop offset="1" stop-color="#808080" stop-opacity="0.1"/>
</linearGradient>
<clipPath id="clip0_343_197">
<rect width="376" height="267" fill="white"/>
</clipPath>
</defs>
</svg>
